<svg xmlns="http://www.w3.org/2000/svg" viewBox="0 0 32 32" width="32" height="32" role="img" aria-label="Feeding / 喂食" class="ohana-duotone-icon" style="--ohana-icon-primary: #1f8a8a; --ohana-icon-accent: #ff755f;">
  <style>
  .primary { fill: var(--ohana-icon-primary, #1f8a8a); }
  .primary-soft { fill: var(--ohana-icon-primary, #1f8a8a); opacity: .22; }
  .accent { fill: var(--ohana-icon-accent, #ff755f); }
  .accent-soft { fill: var(--ohana-icon-accent, #ff755f); opacity: .28; }
  .primary-line {
    fill: none;
    stroke: var(--ohana-icon-primary, #1f8a8a);
    stroke-width: 4.2;
    stroke-linecap: round;
    stroke-linejoin: round;
  }
  .accent-line {
    fill: none;
    stroke: var(--ohana-icon-accent, #ff755f);
    stroke-width: 3;
    stroke-linecap: round;
    stroke-linejoin: round;
  }
  .primary-thin-line {
    fill: none;
    stroke: var(--ohana-icon-primary, #1f8a8a);
    stroke-width: 2.1;
    stroke-linecap: round;
    stroke-linejoin: round;
  }
  .accent-thin-line {
    fill: none;
    stroke: var(--ohana-icon-accent, #ff755f);
    stroke-width: 2.1;
    stroke-linecap: round;
    stroke-linejoin: round;
  }

  </style>
  <title>Feeding / 喂食</title>
  <g>

      <ellipse class="primary-soft" cx="16" cy="13.3" rx="10.2" ry="4.8"/>
      <path class="primary" d="M5.6 13.7h20.8l-1.5 7.5A5.8 5.8 0 0 1 19.2 26h-6.4a5.8 5.8 0 0 1-5.7-4.8l-1.5-7.5Z"/>
      <rect class="primary" x="9.3" y="23.6" width="13.4" height="2.7" rx="1.35"/>
      <path class="accent" d="M16 21.7c-1.8-1-3-2.3-3-3.6 0-1 .7-1.7 1.5-1.7.6 0 1.1.3 1.5.9.4-.6.9-.9 1.5-.9.8 0 1.5.7 1.5 1.7 0 1.3-1.2 2.6-3 3.6Z"/>
      <circle class="accent" cx="11.3" cy="11.8" r="2.05"/>
      <circle class="accent" cx="15.8" cy="10.6" r="2.45"/>
      <circle class="accent" cx="20.2" cy="12" r="2"/>
  </g>
</svg>
