<svg xmlns="http://www.w3.org/2000/svg" viewBox="0 0 1024 1024" width="1024" height="1024">
  <defs>
    <filter id="fur" x="-20%" y="-20%" width="140%" height="140%">
      <feTurbulence type="fractalNoise" baseFrequency="0.038" numOctaves="4" seed="21" result="noise"/>
      <feDisplacementMap in="SourceGraphic" in2="noise" scale="10" xChannelSelector="R" yChannelSelector="G"/>
      <feDropShadow dx="0" dy="28" stdDeviation="26" flood-color="#10210b" flood-opacity="0.20"/>
    </filter>
    <linearGradient id="leash" x1="0" x2="1" y1="0" y2="1">
      <stop offset="0" stop-color="#efff9a"/>
      <stop offset="0.55" stop-color="#c8ff00"/>
      <stop offset="1" stop-color="#65b81f"/>
    </linearGradient>
    <linearGradient id="cream" x1="0" x2="1" y1="0" y2="1">
      <stop offset="0" stop-color="#fff7df"/>
      <stop offset="1" stop-color="#e7bf82"/>
    </linearGradient>
  </defs>
  <rect width="1024" height="1024" fill="none"/>
  <ellipse cx="512" cy="788" rx="294" ry="56" fill="#000" opacity="0.12"/>
  <g filter="url(#fur)">
    <path d="M512 323 C424 226 269 262 249 404 C227 559 389 656 512 748 C635 656 797 559 775 404 C755 262 600 226 512 323Z" fill="none" stroke="url(#leash)" stroke-width="74" stroke-linecap="round" stroke-linejoin="round"/>
    <path d="M512 323 C424 226 269 262 249 404 C227 559 389 656 512 748 C635 656 797 559 775 404 C755 262 600 226 512 323Z" fill="none" stroke="#fff7d5" stroke-width="22" stroke-linecap="round" stroke-linejoin="round" opacity="0.55"/>
    <rect x="625" y="604" width="134" height="94" rx="42" fill="url(#cream)" transform="rotate(-28 692 651)"/>
    <rect x="654" y="623" width="78" height="38" rx="19" fill="#c8ff00" transform="rotate(-28 693 642)" opacity="0.86"/>
    <g transform="translate(286 604) rotate(-14)">
      <ellipse cx="0" cy="50" rx="64" ry="48" fill="url(#cream)"/>
      <circle cx="-43" cy="5" r="22" fill="#fff5d7"/>
      <circle cx="-14" cy="-12" r="22" fill="#fff5d7"/>
      <circle cx="20" cy="-10" r="22" fill="#fff5d7"/>
      <circle cx="48" cy="10" r="22" fill="#fff5d7"/>
    </g>
    <g transform="translate(712 372) rotate(18) scale(0.8)">
      <ellipse cx="0" cy="50" rx="64" ry="48" fill="url(#cream)"/>
      <circle cx="-43" cy="5" r="22" fill="#fff5d7"/>
      <circle cx="-14" cy="-12" r="22" fill="#fff5d7"/>
      <circle cx="20" cy="-10" r="22" fill="#fff5d7"/>
      <circle cx="48" cy="10" r="22" fill="#fff5d7"/>
    </g>
  </g>
</svg>
